<svg id="Capa_1" data-name="Capa 1" xmlns="http://www.w3.org/2000/svg" viewBox="0 0 1080 1080">
  <g>
    <path d="M1040,552.3c-1,14.1-1.4,28.2-3.1,42.2-18.2,148.1-87.3,266.8-208.6,353.8-90.6,64.9-192.8,95.2-304.2,91.4-128.8-4.5-239.8-52.4-333-141.5-.8-.8-.8-4.1,0-5Q365.4,718.8,539.9,544.6a15.5,15.5,0,0,1,10-4.1q245.1-.3,490.1-.2Z" fill="#211985"/>
    <path d="M552.1,40c13.8,1,27.5,1.6,41.2,3.1q120.3,13,221.5,79.4l1.3,1.1-42.7,42.6c-9.3,9.2-18.5,18.6-27.9,27.7a4.8,4.8,0,0,1-2,.7,3.4,3.4,0,0,1-2-.3q-102-58.7-219.4-54c-175.2,7.1-328,131.2-370,301.4-26,105.4-11.5,205.6,42,300.1.5.9.6,2.9-.1,3.5q-34.8,35.1-69.9,70.1l-1.1.8c-2.2-3.4-4.4-6.7-6.5-10.1-57.7-93.3-83.2-194.8-75-304.3C58.7,274.1,228.2,87.5,453.7,47.9c22.8-4,46.1-5,69.2-7.4l4.7-.5Z" fill="#211985"/>
    <path d="M805.6,341.8A89.8,89.8,0,1,1,832,405.7a89.7,89.7,0,0,1-26.4-63.9Z" fill="#211985"/>
  </g>
</svg>